<?xml version="1.0" encoding="iso-8859-1"?>
<!-- Generator: Adobe Illustrator 19.0.0, SVG Export Plug-In . SVG Version: 6.00 Build 0)  -->
<svg version="1.1" id="Capa_1" xmlns="http://www.w3.org/2000/svg" xmlns:xlink="http://www.w3.org/1999/xlink" x="0px" y="0px"
	 viewBox="0 0 512 512" style="enable-background:new 0 0 512 512;" xml:space="preserve">
<g>
	<g>
		<path d="M486.843,206.745l-4.873-0.988c-9.26-1.877-16.456-9.075-18.335-18.334l-0.988-4.873
			c-1.312-6.478-6.845-11.003-13.456-11.003c0,0,0,0-0.001,0c-6.609,0-12.143,4.524-13.457,11.003l-0.988,4.873
			c-1.877,9.26-9.074,16.458-18.335,18.334l-4.873,0.988c-6.478,1.314-11.001,6.847-11.001,13.457s4.524,12.143,11.001,13.457
			l4.873,0.988c9.261,1.877,16.458,9.074,18.335,18.334l0.988,4.874c1.314,6.478,6.848,11.003,13.458,11.001
			c6.611,0,12.144-4.525,13.456-11.003l0.988-4.873c1.878-9.261,9.075-16.458,18.335-18.335l4.873-0.988
			c6.478-1.313,11.001-6.847,11.001-13.457C497.844,213.592,493.321,208.058,486.843,206.745z M449.19,247.136
			c-3.66-13.082-13.854-23.276-26.936-26.936c13.082-3.66,23.277-13.853,26.936-26.936c3.661,13.082,13.855,23.276,26.936,26.936
			C463.046,223.862,452.851,234.054,449.19,247.136z"/>
	</g>
</g>
<g>
	<g>
		<path d="M177.185,153.541c-4.259,0-7.711,3.452-7.711,7.711v20.047c0,4.258,3.452,7.711,7.711,7.711
			c4.259,0,7.711-3.452,7.711-7.711v-20.047C184.895,156.993,181.444,153.541,177.185,153.541z"/>
	</g>
</g>
<g>
	<g>
		<path d="M177.185,207.513c-4.259,0-7.711,3.452-7.711,7.711v20.047c0,4.258,3.452,7.711,7.711,7.711
			c4.259,0,7.711-3.452,7.711-7.711v-20.047C184.895,210.965,181.444,207.513,177.185,207.513z"/>
	</g>
</g>
<g>
	<g>
		<path d="M214.194,190.55h-20.047c-4.259,0-7.711,3.452-7.711,7.711s3.452,7.711,7.711,7.711h20.047
			c4.259,0,7.711-3.452,7.711-7.711S218.453,190.55,214.194,190.55z"/>
	</g>
</g>
<g>
	<g>
		<path d="M160.222,190.55h-20.047c-4.259,0-7.711,3.452-7.711,7.711s3.451,7.711,7.711,7.711h20.047
			c4.259,0,7.711-3.452,7.711-7.711S164.482,190.55,160.222,190.55z"/>
	</g>
</g>
<g>
	<g>
		<path d="M406.755,167.398c-2.534-11.799-8.384-22.546-16.917-31.079c-3.012-3.01-7.895-3.011-10.904,0
			c-3.012,3.011-3.012,7.894-0.001,10.905c5.462,5.461,9.464,12.126,11.716,19.458l-59.909,59.909
			c-6.26-13.804-17.369-24.913-31.174-31.173l19.888-19.888c3.011-3.011,3.011-7.893,0-10.904c-3.012-3.011-7.894-3.011-10.905,0
			L16.413,456.759c-1.445,1.445-2.258,3.407-2.258,5.452c0,2.045,0.812,4.006,2.258,5.452l42.078,42.078
			c1.506,1.506,3.48,2.259,5.453,2.259s3.947-0.753,5.453-2.259l67.767-67.767c3.011-3.011,3.011-7.893,0-10.904
			c-3.012-3.011-7.894-3.011-10.905,0l-62.314,62.315l-31.174-31.174l231.484-231.484c14.883,4.58,26.594,16.292,31.174,31.174
			L148.618,408.711c-3.011,3.011-3.011,7.894,0,10.904c1.506,1.506,3.48,2.259,5.453,2.259c1.974,0,3.947-0.753,5.453-2.259
			l245.145-245.146C406.519,172.619,407.304,169.956,406.755,167.398z M307.366,249.963c-6.26-13.802-17.369-24.911-31.174-31.172
			l11.435-11.435c14.883,4.579,26.594,16.291,31.173,31.173L307.366,249.963z"/>
	</g>
</g>
<g>
	<g>
		<path d="M414.184,67.811l-19.262-3.906c-15.983-3.241-28.403-15.661-31.642-31.643l-3.906-19.264
			C357.822,5.345,351.284,0,343.475,0c-7.81,0-14.348,5.345-15.9,12.999l-3.906,19.263c-3.24,15.982-15.66,28.403-31.642,31.643
			l-19.263,3.906c-7.653,1.551-13,8.09-13,15.899s5.347,14.347,13,15.898l19.263,3.906c15.983,3.24,28.403,15.661,31.642,31.643
			l3.906,19.264c1.552,7.653,8.09,12.999,15.9,12.999c7.809,0,14.347-5.345,15.899-12.999l3.906-19.263
			c3.24-15.982,15.66-28.403,31.642-31.643l19.262-3.906c7.654-1.551,13-8.09,13-15.899
			C427.184,75.901,421.839,69.363,414.184,67.811z M411.121,84.495l-19.262,3.906c-22.069,4.474-39.218,21.625-43.692,43.692
			l-3.906,19.263c-0.072,0.359-0.131,0.643-0.785,0.643c-0.656,0-0.714-0.284-0.786-0.643l-3.906-19.263
			c-4.474-22.068-21.624-39.218-43.692-43.692l-19.263-3.906c-0.359-0.073-0.643-0.131-0.643-0.785c0-0.655,0.285-0.712,0.643-0.785
			l19.263-3.906c22.069-4.474,39.218-21.625,43.692-43.692l3.906-19.263c0.072-0.359,0.131-0.643,0.786-0.643
			c0.655,0,0.712,0.284,0.785,0.643l3.906,19.263c4.474,22.068,21.624,39.218,43.692,43.692l19.262,3.906
			c0.36,0.073,0.643,0.131,0.643,0.785C411.763,84.364,411.48,84.422,411.121,84.495z"/>
	</g>
</g>
<g>
</g>
<g>
</g>
<g>
</g>
<g>
</g>
<g>
</g>
<g>
</g>
<g>
</g>
<g>
</g>
<g>
</g>
<g>
</g>
<g>
</g>
<g>
</g>
<g>
</g>
<g>
</g>
<g>
</g>
</svg>
