<svg viewBox="-40 0 447 447.91714" xmlns="http://www.w3.org/2000/svg"><path d="m12.121094 211.660156c-7.46875 7.507813-11.664063 17.667969-11.664063 28.257813v58.71875c-.058593 53.496093 36.175781 100.21875 88 113.472656v27.808594c0 4.417969 3.582031 8 8 8h112c4.417969 0 8-3.582031 8-8v-27.808594c51.828125-13.253906 88.0625-59.976563 88-113.472656v-30.648438c15.554688-.414062 30.226563-7.308593 40.464844-19.023437l21.542969-24.480469c1.535156-1.75 2.226562-4.085937 1.898437-6.390625-.324219-2.304688-1.640625-4.351562-3.601562-5.609375l-27.503907-17.566406c-15.832031-10.152344-35.730468-11.59375-52.863281-3.832031l6.265625-10.730469 28-9.71875c26.183594-8.9375 41.839844-35.746094 36.757813-62.945313l-5.839844-32.085937c-.417969-2.296875-1.820313-4.292969-3.835937-5.46875-2.015626-1.179688-4.445313-1.414063-6.652344-.652344l-30.816406 10.679687c-26.167969 8.960938-41.800782 35.765626-36.710938 62.953126l5.3125 29.160156-6.121094 10.480468c-1.804687-18.652343-12.871094-35.140624-29.445312-43.878906l-28.800782-15.328125c-2.0625-1.101562-4.503906-1.246093-6.679687-.394531s-3.871094 2.609375-4.640625 4.816406l-10.730469 30.777344c-4.722656 13.429688-4.132812 28.15625 1.648438 41.167969h-61.765625l-11.914063-38.136719c-5.800781-18.65625-25.152343-29.546875-44.109375-24.824219-18.960937 4.722657-30.941406 23.417969-27.3125 42.617188l3.855469 20.34375h-10.402344c-10.625.003906-20.816406 4.230469-28.335937 11.742187zm301.441406-116.382812 22-7.617188 4.167969 22.90625c3.625 19.425782-7.558594 38.570313-26.265625 44.949219l-21.988282 7.625-4.167968-22.902344c-3.628906-19.429687 7.550781-38.574219 26.253906-44.960937zm-113.105469 336.640625h-96v-16.800781c4.410157.511718 8.84375.777343 13.28125.800781h69.441407c4.4375-.023438 8.871093-.289063 13.277343-.800781zm88-133.28125c.019531 55.941406-45.335937 101.296875-101.277343 101.28125h-69.441407c-53.882812.179687-98.382812-42.050781-101.015625-95.871094 9.292969 5.175781 19.761719 7.886719 30.398438 7.871094h17.335937c4.417969 0 8-3.582031 8-8s-3.582031-8-8-8h-17.367187c-11.273438.015625-22.164063-4.085938-30.632813-11.527344v-12.679687c6.882813 5.292968 15.316407 8.175781 24 8.207031h224c8.683594-.039063 17.113281-2.925781 24-8.207031zm-46.550781-34.71875 10.402344-17.792969 20.460937 13.054688c1.015625.65625 2.097657 1.128906 3.136719 1.707031-3.5 1.957031-7.4375 3-11.449219 3.03125zm35.199219-48.21875c12.980469-14.898438 34.933593-18.011719 51.546875-7.300781l19.628906 12.519531-15.375 17.480469c-12.980469 14.902343-34.933594 18.015624-51.542969 7.300781l-19.625-12.527344zm-71.542969-51.671875 7.664062-21.980469 20.550782 10.941406c17.488281 9.207031 25.5625 29.851563 18.96875 48.480469l-7.664063 21.976562-20.558593-10.9375c-17.476563-9.214843-25.546876-29.855468-18.953126-48.480468zm-2.703125 51.890625c4.121094 4.292969 8.894531 7.910156 14.144531 10.710937l21.453125 11.425782-15.070312 25.863281h-73.046875l-5-16h15.117187c4.417969 0 8-3.582031 8-8s-3.582031-8-8-8h-20.117187l-5-16zm-135.679687-56.457031c4.878906-5.902344 12.597656-8.65625 20.113281-7.171876 7.511719 1.480469 13.609375 6.957032 15.886719 14.269532l30.398437 97.359375h-54.480469l-16.367187-87.296875c-1.152344-6.097656.480469-12.390625 4.449219-17.160156zm-13.359376 56.457031 3 16h-16.363281c-4.417969 0-8 3.582031-8 8s3.582031 8 8 8h19.363281l3 16h-22.363281c-13.253906 0-24-10.746094-24-24 0-13.253907 10.746094-24 24-24zm0 0"/><path d="m104.457031 295.917969h-8c-4.417969 0-8 3.582031-8 8s3.582031 8 8 8h8c4.417969 0 8-3.582031 8-8s-3.582031-8-8-8zm0 0"/><path d="m192.457031 247.917969h8c4.417969 0 8-3.582031 8-8s-3.582031-8-8-8h-8c-4.417969 0-8 3.582031-8 8s3.582031 8 8 8zm0 0"/><path d="m97.632812 53.828125c-4.097656 12.609375 2.804688 26.15625 15.417969 30.25 3.40625 1.105469 6.96875 1.671875 10.550781 1.671875 1.050782 0 2.074219-.207031 3.113282-.304688-1.769532 7.148438-.160156 14.714844 4.367187 20.519532 4.527344 5.808594 11.46875 9.21875 18.832031 9.25 1.273438 0 2.542969-.101563 3.800782-.296875 6.292968-.980469 11.933594-4.4375 15.664062-9.601563 2.746094-3.769531 4.679688-8.0625 5.6875-12.617187 9.71875 6.027343 22.34375 4.324219 30.125-4.054688 7.777344-8.382812 8.535156-21.097656 1.804688-30.34375-2.710938-3.734375-6.15625-6.875-10.121094-9.230469 8.695312-7.433593 10.9375-19.972656 5.351562-29.960937-5.585937-9.984375-17.441406-14.640625-28.328124-11.121094-4.386719 1.429688-8.4375 3.734375-11.902344 6.777344-4.398438-10.542969-15.617188-16.53125-26.820313-14.308594-11.207031 2.222657-19.292969 12.035157-19.332031 23.460938 0 4.605469.9375 9.160156 2.75 13.390625-9.679688.773437-17.949219 7.289062-20.960938 16.519531zm96.425782 13.863281c2.597656 3.574219 1.804687 8.578125-1.769532 11.179688-3.574218 2.597656-8.578124 1.804687-11.175781-1.769532l-11.199219-15.417968 6.738282-1.117188c6.683594-1.128906 13.433594 1.632813 17.40625 7.125zm-27.359375-30.132812c.980469-6.714844 5.699219-12.28125 12.160156-14.351563.792969-.265625 1.625-.402343 2.464844-.402343 3.945312-.015626 7.3125 2.847656 7.929687 6.746093.621094 3.894531-1.695312 7.664063-5.453125 8.871094l-18.117187 5.886719zm-8.847657 39.597656c3.148438 6.007812 2.609376 13.285156-1.394531 18.761719-2.597656 3.574219-7.601562 4.363281-11.175781 1.765625s-4.363281-7.601563-1.765625-11.175782l11.199219-15.414062zm-18.007812-61.238281c4.417969 0 8 3.582031 8 8v19.054687l-6.113281-3.054687c-6.078125-3.011719-9.914063-9.21875-9.886719-16 0-4.417969 3.582031-8 8-8zm-26.984375 42.855469c1.070313-3.292969 4.136719-5.523438 7.597656-5.527344.847657 0 1.6875.132812 2.488281.390625l18.121094 5.886719-4.800781 4.875c-4.742187 4.847656-11.828125 6.574218-18.269531 4.453124-4.203125-1.363281-6.503906-5.875-5.136719-10.078124zm0 0"/><path d="m84.035156 36.054688c-3.953125-1.980469-8.761718-.378907-10.738281 3.574218-6.128906 12.335938-6.128906 26.828125 0 39.160156 1.363281 2.726563 4.15625 4.441407 7.203125 4.425782 1.238281 0 2.460938-.292969 3.566406-.851563 3.957032-1.972656 5.5625-6.78125 3.585938-10.734375-3.898438-7.820312-3.898438-17.019531 0-24.839844.945312-1.902343 1.097656-4.105468.417968-6.117187-.679687-2.015625-2.128906-3.675781-4.035156-4.617187zm0 0"/><path d="m224.945312 85.207031c-2.289062 1.84375-3.382812 4.796875-2.847656 7.6875.539063 2.894531 2.617188 5.257813 5.417969 6.15625 2.800781.902344 5.871094.191407 7.992187-1.84375l1.414063-1.25c9.675781-8.445312 13.707031-21.65625 10.402344-34.0625-.667969-2.832031-2.816407-5.078125-5.613281-5.867187-2.796876-.792969-5.800782-.003906-7.851563 2.058594-2.046875 2.058593-2.816406 5.070312-2.007813 7.863281 1.738282 6.558593-.398437 13.535156-5.511718 17.992187zm0 0"/></svg>