<svg id="Capa_1" enable-background="new 0 0 512 512"  viewBox="0 0 512 512" xmlns="http://www.w3.org/2000/svg"><g><path d="m435.767 87.417h-45.275v-.721c-.001-47.804-39.35-86.696-87.717-86.696-13.293 0-25.905 2.938-37.206 8.191-11.302-5.253-23.914-8.191-37.207-8.191-48.367 0-87.717 38.892-87.717 86.696v.721h-64.412c-5.523 0-10 4.477-10 10v350.033c0 35.593 29.283 64.55 65.276 64.55h248.982c35.993 0 65.275-28.957 65.275-64.55v-350.033c.001-5.523-4.477-10-9.999-10zm-132.992-67.417c37.339 0 67.717 29.919 67.717 66.696v.721h-54.412v-.721c0-25.733-11.402-48.883-29.475-64.774 5.183-1.256 10.599-1.922 16.17-1.922zm-37.207 10.992c18.368 11.941 30.511 32.452 30.511 55.703v.721h-61.022v-.721c0-23.251 12.143-43.761 30.511-55.703zm-104.923 55.704c0-36.776 30.378-66.696 67.717-66.696 5.571 0 10.987.666 16.17 1.922-18.073 15.892-29.475 39.042-29.475 64.774v.721h-54.412zm-74.412 360.754v-340.033h54.412v64.071c0 5.523 4.477 10 10 10s10-4.477 10-10v-64.071h135.434v64.071c0 5.523 4.478 10 10 10s10-4.477 10-10v-64.071h54.412v384.583h-238.982c-24.965 0-45.276-19.985-45.276-44.55zm339.534 0c0 21.186-15.105 38.964-35.275 43.455v-383.488h35.275z"/><path d="m306.079 443.383h-155.434c-5.523 0-10 4.477-10 10s4.477 10 10 10h155.434c5.522 0 10-4.477 10-10s-4.477-10-10-10z"/><path d="m269.592 226.701c-19.564 0-32.837 9.833-41.23 19.705-8.393-9.873-21.666-19.705-41.23-19.705-16.091 0-30.792 6.625-41.395 18.656-9.887 11.22-15.332 26.146-15.332 42.028 0 17.125 6.46 32.784 20.331 49.28 6.479 7.707 25.466 22.703 40.252 33.927 7.263 5.512 15.149 11.348 21.637 16.009 10.657 7.656 12.026 8.64 15.737 8.64s5.08-.984 15.737-8.64c6.489-4.662 14.375-10.497 21.637-16.009 14.786-11.224 33.772-26.221 40.252-33.927 13.87-16.496 20.331-32.155 20.331-49.28 0-15.882-5.445-30.808-15.333-42.029-10.602-12.03-25.302-18.655-41.394-18.655zm21.088 97.093c-7.983 9.495-48.052 39.417-62.317 49.475-14.265-10.057-54.333-39.977-62.319-49.475-10.669-12.689-15.639-24.258-15.639-36.409 0-11.011 3.671-21.24 10.336-28.804 6.751-7.661 16.124-11.879 26.391-11.879 11.451 0 21.104 5.43 28.692 16.139 1.32 1.863 2.574 3.897 3.726 6.045 1.742 3.247 5.128 5.273 8.813 5.273s7.071-2.027 8.812-5.274c1.151-2.146 2.404-4.18 3.726-6.044 7.587-10.709 17.241-16.139 28.691-16.139 10.267 0 19.64 4.219 26.39 11.878 6.667 7.565 10.338 17.795 10.338 28.806 0 12.149-4.97 23.718-15.64 36.408z"/></g></svg>